# xmcd
#
# Track frame offsets: 
#        150
#        14603
#        46193
#        75862
#        124999
#
# Disc length: 2148 seconds
#
# Revision: 1
# Processed by: cddbd v1.5.2PL0 Copyright (c) Steve Scherf et al.
# Submitted via: ExactAudioCopy v1.3
#
DISCID=32086205
DTITLE=Pressor - Grave Full Of Weed
DYEAR=2012
DGENRE=Sludge Metal
TTITLE0=Intro - They Deserve To Die
TTITLE1=God's Forgiveness
TTITLE2=Grave Full Of Weed
TTITLE3=Broken Wings
TTITLE4=The Smell That You Like
EXTD=
EXTT0=
EXTT1=
EXTT2=
EXTT3=
EXTT4=
PLAYORDER=
